<?xml version="1.0" encoding="utf-8"?>
<!-- Generator: Adobe Illustrator 16.0.0, SVG Export Plug-In . SVG Version: 6.00 Build 0)  -->
<!DOCTYPE svg PUBLIC "-//W3C//DTD SVG 1.0//EN" "http://www.w3.org/TR/2001/REC-SVG-20010904/DTD/svg10.dtd">
<svg version="1.0" xmlns="http://www.w3.org/2000/svg" xmlns:xlink="http://www.w3.org/1999/xlink" x="0px" y="0px"
	 width="176.958px" height="54.708px" viewBox="0 0 176.958 54.708" enable-background="new 0 0 176.958 54.708"
	 xml:space="preserve">
<g id="Layer_1">
</g>
<g id="Layer_2">
	<rect fill="#E6E7E8" stroke="#000000" stroke-miterlimit="10" width="176.958" height="55.083"/>
	<path opacity="0.7" fill="#E6E7E8" stroke="#D5C600" stroke-miterlimit="10" d="M54.792,35.981c0,2.704-2.191,4.896-4.896,4.896
		l0,0c-2.704,0-4.896-2.192-4.896-4.896l0,0c0-2.704,2.192-4.896,4.896-4.896l0,0C52.601,31.085,54.792,33.277,54.792,35.981
		L54.792,35.981z"/>
	<path opacity="0.4" fill="#E6E7E8" stroke="#0088BB" stroke-miterlimit="10" d="M122.214,12.959c0,2.117-1.716,3.833-3.833,3.833
		l0,0c-2.117,0-3.833-1.716-3.833-3.833l0,0c0-2.117,1.716-3.833,3.833-3.833l0,0C120.499,9.125,122.214,10.842,122.214,12.959
		L122.214,12.959z"/>
	<path opacity="0.7" fill="#E6E7E8" stroke="#D47F18" stroke-miterlimit="10" d="M89.673,36.083c0,3.084-2.5,5.583-5.584,5.583l0,0
		c-3.083,0-5.583-2.5-5.583-5.583l0,0c0-3.084,2.5-5.583,5.583-5.583l0,0C87.174,30.5,89.673,33,89.673,36.083L89.673,36.083z"/>
	<path opacity="0.4" fill="#E6E7E8" stroke="#009444" stroke-miterlimit="10" d="M86.52,13.313c0,1.979-1.604,3.583-3.583,3.583l0,0
		c-1.979,0-3.583-1.604-3.583-3.583l0,0c0-1.979,1.604-3.583,3.583-3.583l0,0C84.915,9.729,86.52,11.334,86.52,13.313L86.52,13.313z
		"/>
	<path opacity="0.4" fill="#E6E7E8" stroke="#B3509E" stroke-miterlimit="10" d="M157.458,12.46c0,2.439-1.978,4.417-4.417,4.417
		l0,0c-2.439,0-4.417-1.978-4.417-4.417l0,0c0-2.439,1.978-4.417,4.417-4.417l0,0C155.481,8.043,157.458,10.021,157.458,12.46
		L157.458,12.46z"/>
	<path opacity="0.7" fill="#E6E7E8" stroke="#A71825" stroke-miterlimit="10" d="M126.964,35.271c0,3.602-2.918,6.521-6.521,6.521
		l0,0c-3.603,0-6.521-2.919-6.521-6.521l0,0c0-3.602,2.918-6.521,6.521-6.521l0,0C124.046,28.75,126.964,31.67,126.964,35.271
		L126.964,35.271z"/>
	<path opacity="0.7" fill="#E6E7E8" stroke="#000000" stroke-miterlimit="10" d="M161.923,34.083c0,4.188-3.395,7.583-7.584,7.583
		l0,0c-4.188,0-7.583-3.395-7.583-7.583l0,0c0-4.188,3.395-7.583,7.583-7.583l0,0C158.529,26.5,161.923,29.895,161.923,34.083
		L161.923,34.083z"/>
	<path opacity="0.4" fill="#E6E7E8" stroke="#292883" stroke-miterlimit="10" d="M50.542,13.418c0,1.519-1.231,2.75-2.75,2.75l0,0
		c-1.519,0-2.75-1.231-2.75-2.75l0,0c0-1.52,1.231-2.75,2.75-2.75l0,0C49.311,10.668,50.542,11.899,50.542,13.418L50.542,13.418z"/>
	<text transform="matrix(1 0 0 1 107.2065 23)" font-family="'MyriadPro-Regular'" font-size="8">4.5</text>
	<text transform="matrix(1 0 0 1 37.9565 23.625)" font-family="'MyriadPro-Regular'" font-size="8">&lt;3.75</text>
	<text transform="matrix(1.3039 0 0 1 5.332 27.5923)" font-family="'MyriadPro-Regular'" font-size="14.9696">Mw</text>
	
		<line fill="none" stroke="#000000" stroke-width="0.5" stroke-miterlimit="10" x1="117.246" y1="20.542" x2="121.079" y2="20.542"/>
	
		<line fill="none" stroke="#000000" stroke-width="0.5" stroke-miterlimit="10" x1="119.162" y1="19.042" x2="119.162" y2="22.458"/>
	
		<line fill="none" stroke="#000000" stroke-width="0.5" stroke-miterlimit="10" x1="117.373" y1="22.872" x2="120.915" y2="22.872"/>
	<text transform="matrix(1 0 0 1 121.7485 23.375)" font-family="'MyriadPro-Regular'" font-size="8">0.25</text>
	<text transform="matrix(1 0 0 1 37.0815 47.5)" font-family="'MyriadPro-Regular'" font-size="8">5.5</text>
	<line fill="none" stroke="#000000" stroke-width="0.5" stroke-miterlimit="10" x1="47.496" y1="45.042" x2="51.33" y2="45.042"/>
	<line fill="none" stroke="#000000" stroke-width="0.5" stroke-miterlimit="10" x1="49.412" y1="43.542" x2="49.412" y2="46.958"/>
	<line fill="none" stroke="#000000" stroke-width="0.5" stroke-miterlimit="10" x1="47.623" y1="47.372" x2="51.166" y2="47.372"/>
	<text transform="matrix(1 0 0 1 51.6235 47.375)" font-family="'MyriadPro-Regular'" font-size="8">0.25</text>
	<text transform="matrix(1 0 0 1 107.9565 48.625)" font-family="'MyriadPro-Regular'" font-size="8">6.5</text>
	<line fill="none" stroke="#000000" stroke-width="0.5" stroke-miterlimit="10" x1="117.996" y1="46.167" x2="121.83" y2="46.167"/>
	
		<line fill="none" stroke="#000000" stroke-width="0.5" stroke-miterlimit="10" x1="119.912" y1="44.667" x2="119.912" y2="48.083"/>
	
		<line fill="none" stroke="#000000" stroke-width="0.5" stroke-miterlimit="10" x1="118.123" y1="48.497" x2="121.666" y2="48.497"/>
	<text transform="matrix(1 0 0 1 122.4985 48.5)" font-family="'MyriadPro-Regular'" font-size="8">0.25</text>
	<text transform="matrix(1 0 0 1 70.5815 23.25)" font-family="'MyriadPro-Regular'" font-size="8">4.0</text>
	<line fill="none" stroke="#000000" stroke-width="0.5" stroke-miterlimit="10" x1="80.996" y1="20.792" x2="84.83" y2="20.792"/>
	<line fill="none" stroke="#000000" stroke-width="0.5" stroke-miterlimit="10" x1="82.912" y1="19.292" x2="82.912" y2="22.708"/>
	<line fill="none" stroke="#000000" stroke-width="0.5" stroke-miterlimit="10" x1="81.123" y1="23.122" x2="84.666" y2="23.122"/>
	<text transform="matrix(1 0 0 1 85.1235 23.125)" font-family="'MyriadPro-Regular'" font-size="8">0.25</text>
	<text transform="matrix(1 0 0 1 140.7095 24.167)" font-family="'MyriadPro-Regular'" font-size="8">5.0</text>
	
		<line fill="none" stroke="#000000" stroke-width="0.5" stroke-miterlimit="10" x1="150.999" y1="21.709" x2="154.833" y2="21.709"/>
	
		<line fill="none" stroke="#000000" stroke-width="0.5" stroke-miterlimit="10" x1="152.915" y1="20.208" x2="152.915" y2="23.625"/>
	
		<line fill="none" stroke="#000000" stroke-width="0.5" stroke-miterlimit="10" x1="151.126" y1="24.039" x2="154.994" y2="24.039"/>
	<text transform="matrix(1 0 0 1 155.2524 24.042)" font-family="'MyriadPro-Regular'" font-size="8">0.25</text>
	<text transform="matrix(1 0 0 1 71.5845 48.667)" font-family="'MyriadPro-Regular'" font-size="8">6.0</text>
	<line fill="none" stroke="#000000" stroke-width="0.5" stroke-miterlimit="10" x1="81.999" y1="46.209" x2="85.833" y2="46.209"/>
	<line fill="none" stroke="#000000" stroke-width="0.5" stroke-miterlimit="10" x1="83.915" y1="44.708" x2="83.915" y2="48.125"/>
	<text transform="matrix(1 0 0 1 86.1265 48.542)" font-family="'MyriadPro-Regular'" font-size="8">0.25</text>
	<text transform="matrix(1 0 0 1 143.9565 48.25)" font-family="'MyriadPro-Regular'" font-size="8">&gt;6.75</text>
	<line fill="none" stroke="#000000" stroke-width="0.5" stroke-miterlimit="10" x1="82.292" y1="48.539" x2="85.835" y2="48.539"/>
</g>
</svg>
